<?xml version="1.0" encoding="utf-8"?>
<!-- Generator: Adobe Illustrator 24.0.1, SVG Export Plug-In . SVG Version: 6.00 Build 0)  -->
<svg version="1.1" id="Calque_2" xmlns="http://www.w3.org/2000/svg" xmlns:xlink="http://www.w3.org/1999/xlink" x="0px" y="0px"
	 viewBox="0 0 3000 3000" style="enable-background:new 0 0 3000 3000;" xml:space="preserve">
<style type="text/css">
	.st0{fill:#FFFFFF;stroke:#FFFFFF;stroke-miterlimit:10;}
	.st1{fill:none;stroke:#FFFFFF;stroke-width:8;stroke-miterlimit:10;}
	.st2{fill:#000000;stroke:#FFFFFF;stroke-miterlimit:10;}
	.st3{fill:none;stroke:#FFFFFF;stroke-width:2;stroke-miterlimit:10;}
</style>
<path class="st0" d="M838.05,374.06c-0.3,0.29-0.59,0.59-0.89,0.89C834.93,379.51,834.48,380.69,838.05,374.06z"/>
<path class="st0" d="M1039.06,1059.87c-19.56-12.66-40.35-3.2-54.62-25.87c-3.63-5.77-14.4-18.08,0.13-19.82
	c2.78-13.22-15.39-28.87-21.47-40.59c-9.08-17.5-14.63-32.81-19.11-51.58c-8.95-37.54-18.92-86.97-39.12-119.51
	c-9.78-15.76-28.05-31.57-42.61-42.71c-12.93-9.9-32.14-16.45-38.33-33.5c-10.7-29.48,16.59-14.31,31.56-13.63
	c19.01,0.86,28.51-15.79,31.6-34.21c1.83-10.92,2.43-31.55-9.08-34.66c-12.49-3.37-25.09,13.52-42.55,8.04
	c-7.35-2.31-7.82-6.22-13.79-10.32c-2.57-1.76-2.76-5.97-5.55-7.54c-3.77-2.12-13.48,0.31-15.87-1.62
	c-6.68-5.37-8.43-15.57-4.35-24.92c6.52-14.92,9.32-8.28,23.59-12.85c23.97-7.68,45.63-31.34,65.86-45.6
	c10.36-7.3,16.22-10.98,23.56-21.29c1.83-2.57,1.18-9.09,3.24-11.06c3.93-3.74,11.97-1.18,14.19-3.39
	c8.02-7.98,13.31-29.04,14.47-41.02c1.68-17.24-6.97-20.63-21.76-28.05c-24.69-12.38-30.28-3.95-48.88,10.27
	c-11.36,8.69-21.65,13.65-32.51,23.2c-7.73,6.8-15.08,17.47-24.93,8.96c-6.37-5.5-6.79-31.28-7.46-39.68
	c-1.29-16.24,2.51-30.68,10.71-44.12c5.65-9.25,13.78-20.44,21.15-27.87c4.11-8.41,14.23-28.29,16.18-31.55
	c0.4-0.68,2.04-2.51,3.88-4.41c-2.29,3.52-5.19,8.55-8.81,15.47c-5.02,9.59-8.33,15.85-10.35,19.61c5.24-5.1,10.02-8.15,13.15-7.03
	c4.98,1.79,15.08-28.5,13.22-34.01c6.53-2.16,11.76,3.01,11.98,2.32c11.57-37.22,14.19-74.45-13.83-107.06
	c-26.47-30.8-66.34-38.9-99.5-11.61c-15.27,12.56-30.45,30.92-37.95,49.33c15.19,13.18,24.02,13.09,21.55,37.38
	c-0.42,4.14-0.51,22.15-0.34,21.6c-3.83,13.04-2.53,8.52-15.7,8.59c-20.11,0.1-24.85,7.03-41.62,19.55
	c-16.19,12.09-33.99,24.72-49.24,37.78c-24.14,20.68-49.55,69.56-40.29,102.26c2.41,8.51,10.75,7.57,10.26,19.07
	c-0.49,11.46-8.18,12.09-14.89,19.76c-7.6,8.69-7.3,14.13-10.02,24.71c-1.31,5.08,3.22,5.74,0.14,11.14
	c-2.41,4.22-10.39,3.84-13.7,7.6c-10.64,12.12-18.51,42.99-18.47,58.54c0.06,24.84,15.92,28.05,37.11,34.13
	c1.53,16.45-5.03,34.08,0.27,50.79v5.79c7.48,14.35,20.87,25.37,32.04,36.89c15.12,15.6,13.65,25.88,7.5,46.7
	c-4.22,14.29-20.11,38.34-14.68,54.2c3.04,8.86,12.59,10.12,16.06,18.61c3.17,7.75-1.14,21.24-1.86,28.44
	c-1.5,14.95,0.66,49.89,18.71,26.71c8.89-11.42,13.15-39.28,16.94-53.64c3.87-14.63-3.05-48.27,6.86-59.47
	c10.71-12.1,33.78,14.94,46.42,22.88c20.46,12.86,41.86,21.21,63.11,29.93c23.28,9.55,15.31,27.72,20.01,49.63
	c8.96,41.76,34.88,71.53,43.19,113.68c3.76,19.07,4.86,36.15,5.24,54.25c0.45,21.43,11.62,26.79,31.82,32.86
	c15.44,4.64,11.97,7.21,20.99,16.49c11.32,11.66,25.09,17.07,40.45,21.8c20.7,6.37,71.22,25.68,77.01-10.16
	c4.48-27.72-33.24-27.54-43.06-44c-15.69-26.29,36.43-4.24,47.81-6.67C1045.65,1099.36,1062.47,1075.01,1039.06,1059.87z
	 M590.18,712.23v4.72C590.16,715.38,590.15,713.8,590.18,712.23z M656.92,852.8c-0.95,7.34-3.55,16.1-11.79,17.94
	c-10.84,2.42-16.35-6.4-15.32-15.94c0.65-6.01,2.49-11.38,4.93-16.89c0.99-2.24,2.06-4.47,3.03-6.74c0.41-1.21,0.89-2.53,1.48-3.85
	c0.66-1.98,1.18-4,1.41-6.1c0.33-3.04,2.79-4.63,5.19-4.76c2.44-1.12,5.84-0.32,6.96,2.39c4.1,2.09,5.04,8.23,5.34,12.54
	C658.63,838.5,657.83,845.75,656.92,852.8z"/>
<path d="M934.57,464.03c0,0,26.94-12.36,27.49-27.49c0.56-15.13-20.67-20.67-20.67-20.67l-27.49,27.49L934.57,464.03z"/>
<path class="st0" d="M1359.48,26.6V11.53L927.85,457.31l-15.92-7.96c0,0,447.55-436.94,447.55-437.82l-357.34,424.59l-67.58,27.91
	l5.66,12.9l50.42-18.7c0,0-92.89,197.28-107.92,188.42s5.32,16.31,5.32,16.31l116.75-194.11c0,0-37.71,255.27-114.98,209.77
	s-6.19,12.85-6.19,12.85s63.68,79.89,137.98-196.96c0,0,10.24-41.87-0.88-54.55C1009.6,427.27,1359.48,26.6,1359.48,26.6z"/>
<path class="st0" d="M933.16,505.11c0,20.53-5.05,37.65-13.38,56.06c-8.48,18.76-13.71,39.39-23.57,57.36
	c-3.89,7.08-9.26,27.8-16.78,29.75c-7.25-5.53,4.4-30.55,5.89-38.42c4.04-21.37,15.1-38.43,23.41-58.59
	c4.13-10.01,12.55-27.7,12.05-37.31"/>
<path class="st0" d="M862.4,566.14c12.55,5.51,14.25,19.68,13.27,31.4c-1.04,12.31-10.85,31.03-6.04,42.74
	c0.22-0.04,2.1-0.02,2.35,0c1.68-4.46,5.53-7.46,7.25-11.74c1.84-4.59,1.6-10.42,2.71-14.99c1.88-7.67,5.66-15.74,8.07-23.33
	c3.11-9.78,1.09-9.66-4.84-17.67c-6.02-8.13-5.02-12.43,4.24-16.91c9.85-4.77,9.87-6.03,12.79-16.92
	c-8.28,4.29-15.38,10.03-23.88,14.37C872.49,556.07,866.53,563.34,862.4,566.14z"/>
<path class="st0" d="M857.98,574.99c-12.04,2.69-3.48,12.54,2.63,15.95c5.34,2.98,17.64,5.98,12.42,16.35
	c-4.94,9.81-29.98-13.94-36.05-18.89c-4.04,11.26-10.46,21.96-14.84,33.03c-2.36,5.98-1.76,10.81-8.81,11.95
	c-6.18,1-11.83-2.65-10.05-9.61c16.04-4.48,7.59-18.8,16.01-28.26c2.14-2.4,4.38-2.01,6.83-3.52c1.49-0.92,4.15,0.03,5.7-1.12
	c2.29-1.7,3.2-6.95,5.25-9.44c4.74-5.78,9.62-7.29,17.17-6.43C853.42,574.99,852.6,574.99,857.98,574.99z"/>
<path class="st0" d="M867.71,714.74c-0.23,7.54-11.23,42.54-18.12,43.27c-11.57,1.22-6.68-13.79-5.76-18.5
	c1.57-8.03-0.08-17.55,1.92-25.5c5.1-2.77,14.06-3.07,19.43-0.8C866.44,714.55,864.52,713.22,867.71,714.74z"/>
<path class="st0" d="M797.3,880.88c-0.03,18.12-4.88,33.41-10.15,50.49c-6.69,21.68-9.25,43.97-15.6,65.92
	c-12.82,44.27-24.45,89.26-36.36,133.71c-1.74,6.5-7.02,15.37-6.68,21.62c0.65,12,7.54,4.99,9.53-2.44
	c3.83-14.26,5.27-30.07,9.9-44.83c10.69-34.06,19.83-68.49,28.15-102.85c7.27-30,18.74-61.34,25.63-92.18
	c0.9-4.04,2.97-6.87,3.54-10.86c-8.01,5.87-8.43,37.11-10.61,47.74c-9.16,44.73-23.32,88.74-28.99,133.58
	c-1.31,10.39-12.18,87.35,0.55,85.66c0.52-14.21,4.53-29.18,5.44-44.09c2.23-36.65,9.01-70.81,16.11-106.83
	c5.42-27.51,10.28-55.41,16.61-81.57"/>
<path class="st0" d="M2164.77,2353.12c-2.49-27.09-6.74-54.04-8.32-81.22c-1.31-22.51,7.55-51.81,2.18-72.93
	c-8.13-31.94-33.33-60.95-47.84-89.42c-7.48-14.67-16.23-30.15-14.42-47.37c7.85,2.62,18.5,5.72,25.74,11.26
	c3.73-18.24-11.63-19.4-21.79-29.81c-14.29-14.64-15.92-20.62-19.37-40.24c-4.61-26.2-23.15-122.64,5.94-138.91
	c28.07,16.61,6.92,129.53,59.26,119.25c2.36-37.46,9.37-94.26-5.38-129.08c-12.44-29.35-40.31-65.44-59.1-91.48
	c-7.4-10.25-20.26-19.58-24.95-31.16c-9.26-22.85,1.06-20.96,8.53-40.35c13.73-35.64,5.56-99.53-27.5-123.69
	c-48.44-35.39-110.66,7.56-120.24,58.92c-11.03-23.69-20.57-47.49-24.65-74.1c-4.67-30.44,3.18-72.82-5.98-102.99
	c-10.89-35.85-44.58-33.12-50.74,2.98c-5.46,32-4.65,70.18-0.08,101.58c9.02,62.06,47.26,120.48,56.8,185.02
	c10.1,68.32,20.39,137.36,23.88,205.99c1.94,38.09,0,76.79,0,114.94c0,44.18,9.7,79.86,17.91,121.14
	c13.17,66.17,62.95,103.61,14.95,167.38c-22.08,29.33-51.84,51.91-78.21,77.41c-3.28,22.59,2.55,42.42,26.79,56.78
	c10.74,6.37,22.24,11.33,34.08,15.55c17.15-5.92,28.86-16.08,41.21-32.04c20.84-26.93,39.55-60.51,50.94-94.94
	c8.55-34.24,13.92-69.18,11.71-104.7c-3.08-49.65-23.77-94.95-36.45-142.39c-5.74-21.46-28.39-81.52-10.52-100.74
	c33.96-36.52,39.91,48.59,46.19,64.92c14.16,36.84,38.69,70.77,56.04,105.97c47.95,97.27-55.05,188.75,4.12,284
	c13.59,21.88,11.93,22.75,33.79,10.82c12.71-6.93,25.4-20.36,33.74-32.09C2186.01,2425.02,2168.37,2392.31,2164.77,2353.12z
	 M1916.27,1637.64c-2.32-3.3-3.92-6.89,0.32-4.35C1916.46,1634.74,1916.33,1636.19,1916.27,1637.64z"/>
<path class="st0" d="M2087.14,2036.86c31.25,46.13,120.65,31.3,128.4-34.3c6.34-53.64-39.44-123.52-92.51-132.95
	c-17.38-3.09-101.07,15.84-68.73-17.92c18.74-19.57,74.16-7.79,94.86,0.75c54.74,22.6,96.01,109.06,82.74,165.02
	c-21.24,89.54-104.24,67.66-165.21,40.75C2070.7,2057.73,2074.53,2058.58,2087.14,2036.86z"/>
<path class="st0" d="M2092.86,1778.19c24.43-38.35-34.48-107.66-45.08-77.63c13.86,13.84,24.95,19.36,27.17,40.31
	c0.95,8.99-8.16,24.14-4.28,29.62c7.2,10.15,21.73,4.9,25.17-1.26"/>
<path class="st0" d="M2066,1631.9c44.16,3.68,49.5,47.69,44.78,85.08c-3.55,28.11-59.98,79.43-50.23,37.84
	c23.19-12.56,34.86-33.87,32.32-60.23C2090.86,1673.77,2055.91,1646.52,2066,1631.9z"/>
<path class="st1" d="M1991.36,169.06c268.19,293.92,287.39,472.07,253.76,580.99c-38.25,123.88-143.32,153.38-217.93,299.7
	c-94.94,186.2-56.12,395.98-8.96,543.34"/>
<path class="st0" d="M1898.02,1964.85h43.39c3.44,0,6.22-2.79,6.22-6.22v-81.67c0-3.44-2.79-6.22-6.22-6.22h-43.39
	c-3.44,0-6.22,2.79-6.22,6.22v81.67C1891.79,1962.06,1894.58,1964.85,1898.02,1964.85z"/>
<circle class="st0" cx="2025.21" cy="1266.34" r="41.8"/>
<circle class="st0" cx="1919.71" cy="1366.2" r="30.6"/>
<circle class="st0" cx="1947.63" cy="1509.5" r="20.49"/>
<circle class="st0" cx="2025.21" cy="1446.01" r="21.74"/>
<path class="st0" d="M2045.9,1972.43h43.39c3.44,0,6.22-2.79,6.22-6.22v-81.67c0-3.44-2.79-6.22-6.22-6.22h-43.39
	c-3.44,0-6.22,2.79-6.22,6.22v81.67C2039.68,1969.64,2042.46,1972.43,2045.9,1972.43z"/>
<path class="st2" d="M1945.97,1625.26c13.87-24.79,25.13-38.6,48.8-36.67c23.38,1.91,35.75,19.13,43.75,43.68
	c8,24.55-44.78,24.54-44.78,24.54S1932.1,1650.05,1945.97,1625.26z"/>
<circle class="st2" cx="1986.47" cy="1675.52" r="14.85"/>
<circle class="st2" cx="1986.47" cy="1675.52" r="7.49"/>
<path class="st3" d="M1974.81,1676.34c-100.95,5.37-60.18-75.63-60.18-75.63"/>
<path class="st0" d="M935.03,1927.2L589.87,2997.15H370.31C608.9,2364.88,1092.26,706.83,1360.68,0h312.15l3.31,2997.15h-215.75l5.28-1069.95
	H935.03z M1465.98,1731.55c1.35-689.95,1.4-1291.17,17.59-1535.23h-10.41c-40.96,197.7-277.03,911.83-475.59,1535.23H1465.98z"/>
<path class="st0" d="M1439.35,0h473.81c655.54,0,685.44,450.85,685.44,869.29v1208.36c0,461.46-65.49,919.5-719.13,919.5h-440.11V0z
	 M1655.51,2803.81h203.99c405.51,0,517.76-212.02,517.76-663.35V829.58c0-397.01-71.59-635.56-510.8-635.56h-210.96V2803.81z"/>
</svg>
