<?xml version="1.0" encoding="iso-8859-1"?>
<!-- Generator: Adobe Illustrator 19.0.0, SVG Export Plug-In . SVG Version: 6.00 Build 0)  -->
<svg version="1.1" id="Layer_1" xmlns="http://www.w3.org/2000/svg" xmlns:xlink="http://www.w3.org/1999/xlink" x="0px" y="0px"
	 viewBox="0 0 410.213 410.213" style="enable-background:new 0 0 410.213 410.213;" xml:space="preserve" fill="#FFFFFF">
<g>
	<g>
		<g>
			<path d="M47.995,148.46c4.971,0,9-4.029,9-9v-10.023c0-4.97-4.029-9-9-9s-9,4.029-9,9v10.023
				C38.995,144.431,43.024,148.46,47.995,148.46z"/>
			<path d="M401.212,81.278h-12.857c-0.182-1.936-0.982-3.828-2.425-5.347L356.374,44.8c-1.668-1.756-3.973-2.767-6.394-2.802
				c-2.46-0.033-4.756,0.906-6.475,2.612l-47.542,47.192l-47.382-30.846c-3.161-2.059-7.273-1.925-10.297,0.333l-44.003,32.877
				l-25.009-16.733c-3.516-2.352-8.194-1.939-11.243,0.992l-44.924,43.195H84.714v-7.871c3.951-0.951,6.891-4.498,6.891-8.741
				c0-4.971-4.029-9-9-9H45.948V73.622c0-4.971-4.029-9-9-9s-9,4.029-9,9v22.385H13.385c-4.971,0-9,4.029-9,9
				c0,4.243,2.939,7.791,6.891,8.741v47.762H9c-4.971,0-9,4.029-9,9s4.029,9,9,9h77.34l73.853,95.18
				c-2.325,6.597-8.113,20.129-19.33,31.203L96.37,254.966c-1.709-1.956-4.18-3.079-6.777-3.079h-37.61c-4.971,0-9,4.029-9,9
				s4.029,9,9,9h33.522l40.788,46.688c-7.562,3.924-16.583,6.451-27.329,6.451c-4.971,0-9,4.029-9,9s4.029,9,9,9
				c26.049,0,48.19-11.506,64.03-33.274c11.65-16.012,15.752-32.001,15.921-32.674c0.673-2.682,0.076-5.524-1.619-7.708
				l-6.355-8.191h93.808l-14.555,25.596c-1.352,2.376-1.55,5.238-0.538,7.778c0.633,1.591,4.557,9.908,19.615,17.391
				c18.161,9.025,45.271,13.601,80.574,13.601c4.971,0,9-4.029,9-9s-4.029-9-9-9c-54.787,0-74.611-11.586-80.987-17.178
				l26.499-46.602c0.001-0.001,0.002-0.003,0.003-0.005l81.02-142.482h24.833c4.971,0,9-4.029,9-9S406.183,81.278,401.212,81.278z
				 M66.713,161.51H29.275v-47.503h37.438V161.51z M210.485,104.528l33.541-25.06l35.263,22.957l3.608,2.349l-16.972,16.846h-30.684
				c-0.213-0.172-0.432-0.339-0.664-0.495l-24.43-16.345L210.485,104.528z M165.284,96.42l37.663,25.199h-63.87L165.284,96.42z
				 M156.974,241.179l-36.536-47.086h42.101l7.889,47.086H156.974z M188.678,241.18l-7.889-47.086h33.543l10.035,47.086H188.678z
				 M274.983,241.18h-32.211l-10.035-47.086h38.467l6.954,41.503L274.983,241.18z M292.255,210.805l-2.8-16.712h12.303
				L292.255,210.805z M315.372,170.151c-0.326-0.036-0.656-0.057-0.992-0.057h-28.947l-0.179-1.07
				c-0.82-4.902-5.458-8.206-10.363-7.389c-4.26,0.714-7.312,4.312-7.501,8.459h-90.623l-0.179-1.07
				c-0.82-4.902-5.46-8.206-10.363-7.389c-4.26,0.714-7.312,4.312-7.501,8.459h-54.823c-0.661,0-1.303,0.076-1.922,0.211
				l-4.121-5.31c-1.705-2.197-4.329-3.483-7.11-3.483h-6.034v-0.001V139.62h182.031l54.689,19.871L315.372,170.151z M363.32,85.829
				l-32.861,57.79l-44.761-16.264l63.958-63.487l17.455,18.385C365.55,83.038,364.214,84.257,363.32,85.829z"/>
			<path d="M197.759,276.913c-4.853-1.052-9.639,2.031-10.701,6.879c-0.036,0.166-3.762,16.77-15.027,33.222
				c-14.505,21.181-34.37,32.353-59.045,33.206c-4.968,0.172-8.855,4.338-8.685,9.306c0.169,4.862,4.162,8.689,8.989,8.689
				c0.105,0,0.211-0.002,0.316-0.005c30.506-1.055,55.976-15.434,73.655-41.584c13.057-19.312,17.221-38.242,17.392-39.038
				C205.694,282.735,202.608,277.965,197.759,276.913z"/>
		</g>
	</g>
</g>
<g>
</g>
<g>
</g>
<g>
</g>
<g>
</g>
<g>
</g>
<g>
</g>
<g>
</g>
<g>
</g>
<g>
</g>
<g>
</g>
<g>
</g>
<g>
</g>
<g>
</g>
<g>
</g>
<g>
</g>
</svg>
